# xmcd
#
# Track frame offsets: 
#        150
#        22947
#        34442
#        50517
#        63405
#        78132
#        93122
#        107527
#        124915
#        139817
#        150282
#        163610
#        177912
#        195262
#        214832
#        233675
#        254357
#        270522
#        283560
#        298270
#        317367
#
# Disc length: 4422 seconds
#
# Revision: 0
# Processed by: cddbd v1.5.1PL0 Copyright (c) Steve Scherf et al.
# Submitted via: ExactAudioCopy v0.95b3
#
DISCID=18114415
DTITLE=Fix - Tsirkus maksimus - kogutud teosed I osa
DYEAR=1999
DGENRE=Oldies
TTITLE0=Sinuta
TTITLE1=Olla võib (That'll Be The Day)
TTITLE2=Siin on see mees
TTITLE3=Viimane mohikaanlane
TTITLE4=Mustlane
TTITLE5=Grammofon
TTITLE6=Edasi rock
TTITLE7=Pesumees
TTITLE8=Uksed
TTITLE9=Pardike ja mooniõis
TTITLE10=Oma saar
TTITLE11=Varblane
TTITLE12=Vana pildiraam
TTITLE13=Selliseks ma jäin
TTITLE14=Happy Anniversary
TTITLE15=Tsirkus
TTITLE16=Ebaühtlane sirge
TTITLE17=Lindude järele
TTITLE18=Värviline maailm
TTITLE19=Lola
TTITLE20=Tütreke väike
EXTD=
EXTT0=
EXTT1=
EXTT2=
EXTT3=
EXTT4=
EXTT5=
EXTT6=
EXTT7=
EXTT8=
EXTT9=
EXTT10=
EXTT11=
EXTT12=
EXTT13=
EXTT14=
EXTT15=
EXTT16=
EXTT17=
EXTT18=
EXTT19=
EXTT20=
PLAYORDER=
